# xmcd
#
# Track frame offsets:
#	150
#	16325
#	29364
#	41332
#	51462
#	74100
#	90658
#	104633
#	117378
#	131839
#
# Disc length: 1920 seconds
#
# Revision: 0
# Processed by: cddbd v1.5PL3 Copyright (c) Steve Scherf et al.
# Submitted via: dBpowerAMP V4.0
#
DISCID=93077e0a
DTITLE=Standing Tall - Pocket Full of Seeds
DYEAR=1900
DGENRE=Bluegrass
TTITLE0=The Lamb is Within
TTITLE1=Mr. President
TTITLE2=Adam and Eve and Me
TTITLE3=Walking on the Waves
TTITLE4=Where You Are
TTITLE5=If Only the Father Knows
TTITLE6=Can't Turn My Back on Him Now
TTITLE7=Prove the Devil Wrong
TTITLE8=I've Come to Pull a David (On You Devil)
TTITLE9=I'm on My Way to the Promise Land
EXTD=
EXTT0=
EXTT1=
EXTT2=
EXTT3=
EXTT4=
EXTT5=
EXTT6=
EXTT7=
EXTT8=
EXTT9=
PLAYORDER=
